<svg version="1.1" viewBox="0.0 0.0 512.0 512.0" fill="none" stroke="none" stroke-linecap="square" stroke-miterlimit="10" xmlns:xlink="http://www.w3.org/1999/xlink" xmlns="http://www.w3.org/2000/svg"><clipPath id="p.0"><path d="m0 0l512.0 0l0 512.0l-512.0 0l0 -512.0z" clip-rule="nonzero"/></clipPath><g clip-path="url(#p.0)"><path fill="#000000" fill-opacity="0.0" d="m0 0l512.0 0l0 512.0l-512.0 0z" fill-rule="evenodd"/><path fill="#444444" d="m1.1181102 86.08044l0 0c0 -46.923397 38.03893 -84.962326 84.962326 -84.962326l339.8391 0l0 0c22.533417 0 44.14392 8.951363 60.077454 24.88489c15.933533 15.933527 24.884888 37.54403 24.884888 60.07744l0 339.8391c0 46.9234 -38.03894 84.96234 -84.96234 84.96234l-339.8391 0c-46.923397 0 -84.962326 -38.03894 -84.962326 -84.96234z" fill-rule="evenodd"/><path stroke="#3498db" stroke-width="2.0" stroke-linejoin="round" stroke-linecap="butt" d="m1.1181102 86.08044l0 0c0 -46.923397 38.03893 -84.962326 84.962326 -84.962326l339.8391 0l0 0c22.533417 0 44.14392 8.951363 60.077454 24.88489c15.933533 15.933527 24.884888 37.54403 24.884888 60.07744l0 339.8391c0 46.9234 -38.03894 84.96234 -84.96234 84.96234l-339.8391 0c-46.923397 0 -84.962326 -38.03894 -84.962326 -84.96234z" fill-rule="evenodd"/><path fill="#000000" fill-opacity="0.0" d="m0 265.70602l512.0 0l0 239.14963l-512.0 0z" fill-rule="evenodd"/><path fill="#3498db" d="m71.375 450.5985q-15.046875 0 -25.34375 -5.703125q-10.28125 -5.71875 -16.546875 -15.1875q-6.25 -9.484375 -9.015625 -21.03125q-2.765625 -11.5625 -2.765625 -23.359375q0 -10.78125 2.8125 -22.296875q2.8125 -11.515625 9.109375 -21.34375q6.296875 -9.84375 16.59375 -15.921875q10.296875 -6.078125 25.15625 -6.078125q12.234375 0 21.625 4.5q9.390625 4.484375 15.78125 11.640625q6.390625 7.15625 9.5625 15.046875l-25.5625 11.421875q-3.1875 -4.796875 -6.265625 -8.15625q-3.078125 -3.359375 -6.703125 -5.125q-3.625 -1.765625 -8.4375 -1.765625q-6.796875 0 -11.421875 3.5q-4.625 3.484375 -7.34375 9.203125q-2.71875 5.703125 -3.953125 12.375q-1.21875 6.65625 -1.21875 13.0q0 6.53125 1.359375 13.203125q1.359375 6.65625 4.265625 12.1875q2.90625 5.53125 7.4375 8.9375q4.53125 3.390625 10.875 3.390625q6.53125 0 11.609375 -4.578125q5.078125 -4.578125 9.421875 -11.734375l26.109375 9.78125q-4.625 9.984375 -11.15625 17.6875q-6.515625 7.703125 -15.40625 12.0625q-8.875 4.34375 -20.578125 4.34375zm64.00818 -1.8125l0 -126.9375l28.65625 0l0 48.0625l49.5 0l0 -48.0625l28.65625 0l0 126.9375l-28.65625 0l0 -51.5l-49.5 0l0 51.5l-28.65625 0zm122.404175 0l50.578125 -126.9375l27.390625 0l50.765625 126.9375l-31.359375 0l-9.4375 -24.109375l-47.328125 0l-9.25 24.109375l-31.359375 0zm50.21875 -50.59375l27.921875 0l-10.328125 -25.375q-0.546875 -1.28125 -1.234375 -2.859375q-0.671875 -1.59375 -1.3125 -3.265625q-0.625 -1.6875 -1.078125 -3.125q-0.453125 1.4375 -1.09375 3.125q-0.625 1.671875 -1.3125 3.265625q-0.671875 1.578125 -1.21875 2.859375l-10.34375 25.375z" fill-rule="nonzero"/><path fill="#3498db" d="m430.77045 448.786l0 -99.375l-36.453125 0l0 -27.5625l101.734375 0l0 27.5625l-36.625 0l0 99.375l-28.65625 0z" fill-rule="nonzero"/><path fill="#2ecc71" d="m59.48272 158.40009l0 0c0 -65.70239 53.262314 -118.96471 118.964714 -118.96471l155.10158 0l0 0c31.551422 0 61.810547 12.533745 84.12076 34.843952c22.310211 22.310211 34.843964 52.56935 34.843964 84.12075l0 0l0 0c0 65.70241 -53.26233 118.96472 -118.96472 118.96472l-155.10158 0c-65.7024 0 -118.964714 -53.262314 -118.964714 -118.96472z" fill-rule="evenodd"/><path fill="#3498db" d="m181.33728 254.40009l0 -186.65625l92.53125 0q23.859375 0 37.859375 8.328125q14.0 8.328125 20.0625 22.203125q6.078125 13.859375 6.078125 30.265633q0 10.265625 -3.875 21.140625q-3.859375 10.859375 -11.265625 19.859375q-7.40625 9.0 -17.9375 13.65625l34.671875 71.203125l-47.203125 0l-33.328125 -64.53125l-35.46875 0l0 64.53125l-42.125 0zm42.125 -104.265625l50.9375 0q7.46875 0 11.796875 -3.0q4.328125 -3.0 6.125 -7.921875q1.8125 -4.9375 1.8125 -10.671875q0 -5.3281326 -1.734375 -10.125008q-1.734375 -4.8125 -6.078125 -7.875q-4.328125 -3.0625 -11.921875 -3.0625l-50.9375 0l0 42.656258z" fill-rule="nonzero"/><path fill="#2ecc71" d="m59.48294 159.71129l121.2464 0l0 117.636765l-121.2464 0z" fill-rule="evenodd"/></g></svg>